<?xml version="1.0" encoding="UTF-8" standalone="no"?><svg width="628" height="45" viewBox="0 0 628 45" fill="none" xmlns="http://www.w3.org/2000/svg">
<path d="M0 31.5894C2.11765 32.8035 4.25528 33.7196 6.41288 34.3377C8.57049 34.9558 10.4784 35.2649 12.1365 35.2649C13.8147 35.2649 15.0333 34.9779 15.7925 34.404C16.5716 33.8079 16.9612 33.0132 16.9612 32.0199C16.9612 31.4238 16.8113 30.9051 16.5117 30.4636C16.192 30.0221 15.7325 29.5916 15.1332 29.1722C14.5539 28.7307 12.8657 27.8035 10.0688 26.3907C7.27193 24.9779 5.26416 23.6976 4.04551 22.5497C1.5283 20.1656 0.269701 16.9426 0.269701 12.8808C0.269701 8.81899 1.58824 5.66225 4.22531 3.4106C6.88236 1.15894 10.5183 0.0331129 15.1332 0.0331129C19.1887 0.0331129 23.3541 1.08168 27.6293 3.17881L24.363 12.2517C20.687 10.3974 17.5006 9.4702 14.8036 9.4702C13.485 9.4702 12.4961 9.72406 11.8369 10.2318C11.1776 10.7395 10.848 11.4238 10.848 12.2848C10.848 13.1236 11.2475 13.8852 12.0466 14.5695C12.8657 15.2539 15.0034 16.468 18.4595 18.2119C21.9157 19.9338 24.303 21.766 25.6216 23.7086C26.9601 25.6071 27.6293 28.0353 27.6293 30.9934C27.6693 35.0993 26.2609 38.4437 23.404 41.0265C20.5672 43.6093 16.8213 44.8786 12.1665 44.8344C9.50945 44.8344 7.27193 44.6247 5.45395 44.2053C3.65594 43.7638 1.83796 43.0574 0 42.0861V31.5894Z" fill="white"/>
<path d="M51.1333 10.298V44.2384H40.4651V10.298H30.8458V0.662255H60.7226V10.298H51.1333Z" fill="white"/>
<path d="M77.0679 44.2384H66.3697V0.662255H77.0679V44.2384Z" fill="white"/>
<path d="M111.419 44.2384H85.5875V0.662255H96.2557V34.7351H111.419V44.2384Z" fill="white"/>
<path d="M143.545 44.2384H117.714V0.662255H128.382V34.7351H143.545V44.2384Z" fill="white"/>
<path d="M218.05 0.662255L208.341 44.2384H195.755L191.979 25.2649C191.759 24.3377 191.47 22.7815 191.11 20.596C190.751 18.4106 190.471 16.4128 190.271 14.6027C189.931 17.7152 189.382 21.0817 188.623 24.702L184.697 44.2384H172.111L162.342 0.662255H172.621L176.906 22.5166C177.865 27.351 178.524 31.1921 178.884 34.0397C179.123 32.0088 179.543 29.2605 180.142 25.7947C180.742 22.3289 181.311 19.4481 181.85 17.1523L185.327 0.662255H195.186L198.572 17.1523C199.091 19.6026 199.651 22.5497 200.25 25.9934C200.849 29.4371 201.269 32.1192 201.509 34.0397C201.688 32.053 202.328 28.234 203.426 22.5828L207.772 0.662255H218.05Z" fill="white"/>
<path d="M240.372 9.63576C235.038 9.63576 232.37 13.8742 232.37 22.351C232.37 30.8057 235.018 35.0331 240.312 35.0331C243.029 35.0331 245.036 34.0066 246.335 31.9536C247.634 29.9007 248.283 26.7108 248.283 22.3841C248.283 18.0574 247.624 14.8565 246.305 12.7815C245.006 10.6843 243.029 9.63576 240.372 9.63576ZM221.163 22.3841C221.163 15.0993 222.801 9.54746 226.077 5.72848C229.354 1.90949 234.119 0 240.372 0C246.645 0 251.399 1.89846 254.636 5.69537C257.872 9.4702 259.49 15.0331 259.49 22.3841C259.49 29.7351 257.862 35.3201 254.606 39.1391C251.369 42.936 246.625 44.8344 240.372 44.8344C234.139 44.8344 229.374 42.9139 226.077 39.0728C222.801 35.2318 221.163 29.6689 221.163 22.3841Z" fill="white"/>
<path d="M277.32 28.3775V44.2384H266.652V0.662255H279.567C290.296 0.662255 295.66 4.95585 295.66 13.543C295.66 18.5982 293.422 22.5055 288.947 25.2649L300.454 44.2384H288.378L280.017 28.3775H277.32ZM277.32 9.56954V19.5364H279.298C283.034 19.5364 284.902 17.7152 284.902 14.0728C284.902 11.0706 283.074 9.56954 279.418 9.56954H277.32Z" fill="white"/>
<path d="M314.744 44.2384H304.045V0.662255H314.744V19.6026C315.343 18.3002 316.432 16.4349 318.01 14.0066L326.311 0.662255H337.938L325.532 20.1987L337.728 44.2384H325.711L317.92 27.5828L314.744 29.6689V44.2384Z" fill="white"/>
<path d="M352.658 44.2384H341.96V0.662255H352.658V44.2384Z" fill="white"/>
<path d="M398.726 0.662255V44.2384H384.762L370.348 13.543H370.108C370.448 18.532 370.617 22.2185 370.617 24.6026V44.2384H361.178V0.662255H375.113L389.437 30.9603H389.616C389.357 26.7219 389.227 23.1898 389.227 20.3642V0.662255H398.726Z" fill="white"/>
<path d="M423.077 27.8146V18.7417H440.098V42.2185C435.503 43.9625 430.429 44.8344 424.875 44.8344C418.822 44.8344 414.127 42.8918 410.791 39.0066C407.474 35.1214 405.816 29.6137 405.816 22.4834C405.816 15.3532 407.624 9.83444 411.24 5.92715C414.856 1.99779 419.95 0.0331129 426.523 0.0331129C431.278 0.0331129 435.533 0.949228 439.289 2.78146L435.933 12.0199C433.116 10.4746 430.069 9.70199 426.793 9.70199C423.536 9.70199 421.059 10.8168 419.361 13.0464C417.663 15.2759 416.814 18.4547 416.814 22.5828C416.814 26.6887 417.583 29.8124 419.121 31.9536C420.66 34.0949 422.877 35.1656 425.774 35.1656C427.392 35.1656 428.84 34.989 430.119 34.6358V27.8146H423.077Z" fill="white"/>
<path d="M481.81 9.63576C476.476 9.63576 473.809 13.8742 473.809 22.351C473.809 30.8057 476.456 35.0331 481.75 35.0331C484.467 35.0331 486.475 34.0066 487.773 31.9536C489.072 29.9007 489.721 26.7108 489.721 22.3841C489.721 18.0574 489.062 14.8565 487.743 12.7815C486.445 10.6843 484.467 9.63576 481.81 9.63576ZM462.601 22.3841C462.601 15.0993 464.239 9.54746 467.516 5.72848C470.792 1.90949 475.557 0 481.81 0C488.083 0 492.838 1.89846 496.074 5.69537C499.31 9.4702 500.929 15.0331 500.929 22.3841C500.929 29.7351 499.3 35.3201 496.044 39.1391C492.808 42.936 488.063 44.8344 481.81 44.8344C475.577 44.8344 470.812 42.9139 467.516 39.0728C464.239 35.2318 462.601 29.6689 462.601 22.3841Z" fill="white"/>
<path d="M545.638 0.662255V44.2384H531.674L517.26 13.543H517.02C517.36 18.532 517.53 22.2185 517.53 24.6026V44.2384H508.09V0.662255H522.025L536.349 30.9603H536.529C536.269 26.7219 536.139 23.1898 536.139 20.3642V0.662255H545.638Z" fill="white"/>
<path d="M580.783 44.2384H570.085V0.662255H580.783V44.2384Z" fill="white"/>
<path d="M606.713 10.298V44.2384H596.045V10.298H586.426V0.662255H616.303V10.298H606.713Z" fill="white"/>
<path d="M628 39.2715C628 41.0817 627.501 42.4945 626.502 43.5099C625.523 44.5033 624.154 45 622.396 45C620.638 45 619.25 44.5033 618.231 43.5099C617.212 42.4945 616.703 41.0817 616.703 39.2715C616.703 37.4393 617.192 36.0375 618.171 35.0662C619.17 34.0728 620.578 33.5762 622.396 33.5762C624.214 33.5762 625.603 34.0728 626.562 35.0662C627.521 36.0596 628 37.4614 628 39.2715Z" fill="white"/>
</svg>
